:SAMPLES-PER-SECOND 30
:FULLY-SPECIFIED
:DEGREES
192
root  -6.5771 39.2587 11.3875 -4.18027 -52.9242 6.18919
RightUpLeg  9.51501 1.66195 0.972106
RightLeg  32.8578 16.5949 11.0258
RightFoot  40.6965 -12.0988 25.12
RightToes  -1.33073e-015 0 -3.6325e-017
Spine  -11.2134 25.8903 32.6471
Spine1  -3.79363 26.1671 -30.6364
HEad  20.3722 -67.0452 -12.8572
LeftShoulder1  2.14476 -6.93823 -13.5796
LeftArm  -67.3853 -24.2518 -14.4384
LeftForeArm  173.407 -75.0516 -144.806
LeftHand  -0.246645 0.021 5.37786
RightShoulder  2.138 10.1171 8.21928
RightArm  112.008 51.2204 162.056
RightForeArm  63.3383 62.3586 15.3179
RightHand  -0.24729 -0.0210522 -5.37781
LeftUpLeg  -12.4285 -7.54097 -10.7261
LeftLeg  73.3111 -76.1693 -74.3662
LeftFoot  9.40216 2.88764 -16.0057
LeftToes  5.09284e-011 3.02203e-011 3.83118e-011
193
root  -6.59354 39.2835 11.3755 -4.25006 -52.9934 6.37228
RightUpLeg  9.50955 1.65012 0.883637
RightLeg  32.7392 16.5588 10.9547
RightFoot  40.724 -11.9653 24.8412
RightToes  -1.33073e-015 0 -3.6325e-017
Spine  -11.0381 26.0924 32.8556
Spine1  -3.8524 26.4348 -31.073
HEad  20.1672 -67.0844 -12.6515
LeftShoulder1  2.16915 -7.06609 -13.5605
LeftArm  -67.5747 -24.1665 -14.2059
LeftForeArm  173.621 -74.9739 -145.026
LeftHand  -0.246645 0.021 5.37786
RightShoulder  2.1394 10.0516 8.31652
RightArm  111.953 51.2278 161.998
RightForeArm  63.7148 62.4656 15.3668
RightHand  -0.24729 -0.0210522 -5.37781
LeftUpLeg  -12.4214 -7.6569 -10.8225
LeftLeg  72.0551 -76.0735 -73.0548
LeftFoot  9.70144 2.72541 -14.9251
LeftToes  5.09284e-011 3.02203e-011 3.83118e-011
194
root  -6.60858 39.3112 11.361 -4.30095 -53.1345 6.52423
RightUpLeg  9.5199 1.65668 0.810019
RightLeg  32.5971 16.4769 10.8452
RightFoot  40.7281 -11.8146 24.5408
RightToes  -1.33073e-015 0 -3.6325e-017
Spine  -10.9529 26.3088 33.0593
Spine1  -3.76295 26.7334 -31.458
HEad  19.7231 -67.1596 -12.1349
LeftShoulder1  2.19001 -7.22512 -13.4393
LeftArm  -67.5958 -24.2323 -14.1444
LeftForeArm  173.55 -75.049 -144.836
LeftHand  -0.246645 0.021 5.37786
RightShoulder  2.16796 9.98572 8.6404
RightArm  111.969 51.2722 161.768
RightForeArm  63.9509 62.5187 15.387
RightHand  -0.24729 -0.0210522 -5.37781
LeftUpLeg  -12.3851 -7.75333 -10.8857
LeftLeg  70.6433 -76.0488 -71.5699
LeftFoot  9.91577 2.57921 -14.0109
LeftToes  5.09284e-011 3.02203e-011 3.83118e-011
195
root  -6.62258 39.3353 11.3434 -4.35326 -53.3542 6.6584
RightUpLeg  9.52207 1.6116 0.701431
RightLeg  32.4958 16.3437 10.7196
RightFoot  40.7348 -11.6992 24.3086
RightToes  -1.33073e-015 0 -3.6325e-017
Spine  -10.9634 26.4088 33.1792
Spine1  -3.5365 26.9052 -31.5629
HEad  18.9496 -66.993 -11.303
LeftShoulder1  2.18596 -7.24461 -13.3571
LeftArm  -67.4204 -24.3485 -14.3204
LeftForeArm  173.333 -75.1876 -144.466
LeftHand  -0.246645 0.021 5.37786
RightShoulder  2.19444 9.98541 8.86084
RightArm  111.892 51.2724 161.536
RightForeArm  63.9724 62.4415 15.3263
RightHand  -0.24729 -0.0210522 -5.37781
LeftUpLeg  -12.3124 -7.78147 -10.9178
LeftLeg  69.1997 -76.1109 -70.0537
LeftFoot  10.0084 2.47582 -13.4106
LeftToes  5.09284e-011 3.02203e-011 3.83118e-011
196
root  -6.63338 39.3508 11.3182 -4.46388 -53.6311 6.80423
RightUpLeg  9.50781 1.53806 0.567529
RightLeg  32.499 16.1404 10.5908
RightFoot  40.7564 -11.6395 24.1793
RightToes  -1.33073e-015 0 -3.6325e-017
Spine  -10.822 26.332 33.2199
Spine1  -3.5057 26.879 -31.5767
HEad  18.1431 -66.6299 -10.4406
LeftShoulder1  2.17892 -7.22423 -13.3276
LeftArm  -67.0609 -24.476 -14.5851
LeftForeArm  172.742 -75.3819 -143.886
LeftHand  -0.246645 0.021 5.37786
RightShoulder  2.22731 10.0591 9.03284
RightArm  111.58 51.2646 161.18
RightForeArm  63.9499 62.24 15.1759
RightHand  -0.24729 -0.0210522 -5.37781
LeftUpLeg  -12.2399 -7.84857 -10.9354
LeftLeg  67.606 -76.0986 -68.3836
LeftFoot  10.0101 2.3898 -12.9585
LeftToes  5.09284e-011 3.02203e-011 3.83118e-011
197
root  -6.63763 39.359 11.2856 -4.62613 -53.966 6.95026
RightUpLeg  9.48361 1.59804 0.484516
RightLeg  32.5727 15.9098 10.4717
RightFoot  40.772 -11.6339 24.1604
RightToes  -1.33073e-015 0 -3.6325e-017
Spine  -10.5581 26.1714 33.2224
Spine1  -3.61794 26.7637 -31.6065
HEad  17.5467 -66.277 -9.80369
LeftShoulder1  2.21775 -7.39365 -13.3717
LeftArm  -66.4602 -24.6671 -14.8605
LeftForeArm  171.624 -75.7277 -142.799
LeftHand  -0.246645 0.021 5.37786
RightShoulder  2.27795 10.1431 9.33492
RightArm  111.095 51.3662 160.503
RightForeArm  63.9482 61.9565 14.9655
RightHand  -0.24729 -0.0210522 -5.37781
LeftUpLeg  -12.216 -8.03869 -10.933
LeftLeg  65.7065 -75.8693 -66.3886
LeftFoot  9.98659 2.28724 -12.4333
LeftToes  5.09284e-011 3.02203e-011 3.83118e-011
198
root  -6.63379 39.3665 11.2524 -4.77469 -54.4042 7.07768
RightUpLeg  9.42421 1.8088 0.42225
RightLeg  32.6643 15.7753 10.4205
RightFoot  40.7739 -11.6573 24.2059
RightToes  -1.33073e-015 0 -3.6325e-017
Spine  -10.5545 26.0035 33.2182
Spine1  -3.33936 26.6552 -31.4
HEad  16.9221 -65.8635 -9.26643
LeftShoulder1  2.31209 -7.70402 -13.6775
LeftArm  -65.6044 -24.9801 -15.2385
LeftForeArm  170.092 -76.2514 -141.076
LeftHand  -0.246645 0.021 5.37786
RightShoulder  2.30905 10.1739 9.54711
RightArm  110.624 51.5672 159.716
RightForeArm  63.8637 61.5724 14.6944
RightHand  -0.24729 -0.0210522 -5.37781
LeftUpLeg  -12.2489 -8.20928 -10.8944
LeftLeg  63.6681 -75.5202 -64.2525
LeftFoot  9.98377 2.17751 -11.8576
LeftToes  5.09284e-011 3.02203e-011 3.83118e-011
